<?xml version="1.0" encoding="UTF-8"?>
<svg width="131px" height="52px" viewBox="0 0 131 52" version="1.1" xmlns="http://www.w3.org/2000/svg" xmlns:xlink="http://www.w3.org/1999/xlink">
    <!-- Generator: Sketch 42 (36781) - http://www.bohemiancoding.com/sketch -->
    <title>area</title>
    <desc>Created with Sketch.</desc>
    <defs></defs>
    <g id="" stroke="none" stroke-width="1" fill="none" fill-rule="evenodd">
        <g id="area">
            <path d="M21.7943871,39 L123.002562,39 C126.872332,39 130,35.8652838 130,31.9905637 L130,15.0094363 C130,11.1332611 126.869463,8 123.002562,8 L7.99743845,8 C4.12766807,8 1,11.1347162 1,15.0094363 L1,31.9905637 C1,35.8667389 4.1305372,39 7.99743845,39 L7.99999999,50 L21.7943871,39 Z M22.0484223,40 L6.99999999,52 L6.99999999,39.938431 C3.05386696,39.4476617 0,36.0825045 0,31.9905637 L0,15.0094363 C0,10.5859468 3.5718735,7 7.99743845,7 L123.002562,7 C127.419425,7 131,10.5786512 131,15.0094363 L131,31.9905637 C131,36.4140532 127.428126,40 123.002562,40 L22.0484223,40 Z" id="Shape" fill="#D8D8D8" fill-rule="nonzero"></path>
            <path d="M49.432,32 L50.872,32 L50.872,15.56 L49.432,15.56 L49.432,22.736 L41.56,22.736 L41.56,15.56 L40.12,15.56 L40.12,32 L41.56,32 L41.56,23.96 L49.432,23.96 L49.432,32 Z M64.984,25.256 C64.984,21.56 63.352,19.184 60.088,19.184 C57.016,19.184 55.072,21.824 55.072,25.832 C55.072,29.864 57.088,32.264 60.4,32.264 C62.056,32.264 63.328,31.688 64.504,30.728 L63.856,29.84 C62.752,30.656 61.84,31.088 60.472,31.088 C58.312,31.088 56.728,29.672 56.56,26.264 L64.936,26.264 C64.96,26.024 64.984,25.64 64.984,25.256 L64.984,25.256 Z M63.616,25.184 L56.536,25.184 C56.704,21.8 58.192,20.336 60.136,20.336 C62.512,20.336 63.616,22.088 63.616,24.824 L63.616,25.184 Z M71.08,32.264 C71.608,32.264 72.136,32.12 72.52,31.928 L72.136,30.896 C71.872,31.016 71.584,31.064 71.272,31.064 C70.576,31.064 70.264,30.656 70.264,29.84 L70.264,14.168 L68.872,14.336 L68.872,29.888 C68.872,31.496 69.76,32.264 71.08,32.264 L71.08,32.264 Z M77.896,32.264 C78.424,32.264 78.952,32.12 79.336,31.928 L78.952,30.896 C78.688,31.016 78.4,31.064 78.088,31.064 C77.392,31.064 77.08,30.656 77.08,29.84 L77.08,14.168 L75.688,14.336 L75.688,29.888 C75.688,31.496 76.576,32.264 77.896,32.264 L77.896,32.264 Z M86.704,19.184 C83.416,19.184 81.376,21.704 81.376,25.736 C81.376,29.768 83.344,32.264 86.68,32.264 C89.992,32.264 92.008,29.744 92.008,25.688 C92.008,21.584 90.04,19.184 86.704,19.184 L86.704,19.184 Z M86.704,20.36 C89.128,20.36 90.544,22.16 90.544,25.688 C90.544,29.288 89.08,31.088 86.68,31.088 C84.28,31.088 82.864,29.264 82.864,25.736 C82.864,22.136 84.328,20.36 86.704,20.36 L86.704,20.36 Z" id="Hello" fill="#D8D8D8"></path>
            <path d="M9,24 L9,9 L8,9 L8,24 L2,24 L2,25 L8,25 L8,49 L9,49 L9,25 L129,25 L129,24 L9,24 Z M6,8 L11,8 L11,9 L6,9 L6,8 Z M6,49 L11,49 L11,50 L6,50 L6,49 Z M1,22 L2,22 L2,27 L1,27 L1,22 Z M129,22 L130,22 L130,27 L129,27 L129,22 Z" id="dimensions" fill-opacity="0.55" fill="#0095FF"></path>
            <g id="tooltip" transform="translate(13.000000, 0.000000)">
                <rect fill-opacity="0.55" fill="#001E33" x="0" y="0" width="73" height="20" rx="3"></rect>
                <text id="129-x-42-px" font-family="HelveticaNeue, Helvetica Neue" font-size="12" font-weight="normal" fill="#FFFFFF">
                    <tspan x="5" y="14">129 x 42 px</tspan>
                </text>
            </g>
        </g>
    </g>
</svg>