<?xml version="1.0" encoding="UTF-8" standalone="no"?>
<svg width="138px" height="53px" viewBox="0 0 138 53" version="1.1" xmlns="http://www.w3.org/2000/svg" xmlns:xlink="http://www.w3.org/1999/xlink" xmlns:sketch="http://www.bohemiancoding.com/sketch/ns">
    <!-- Generator: Sketch 3.3.2 (12043) - http://www.bohemiancoding.com/sketch -->
    <title>files</title>
    <desc>Created with Sketch.</desc>
    <defs></defs>
    <g id="" stroke="none" stroke-width="1" fill="none" fill-rule="evenodd" sketch:type="MSPage">
        <g id="files" sketch:type="MSLayerGroup" fill="#45ACF8">
            <g id="file" transform="translate(0.000000, 1.000000)" sketch:type="MSShapeGroup">
                <path d="M37,13 L37,48.9950597 C37,50.1026634 36.1049181,51 35.0023401,51 L2.99765987,51 C1.90090555,51 1,50.1000904 1,48.9985181 L1,3.0014819 C1,1.89202337 1.89185336,1 2.99666051,1 L25,1.00000001 L25,10.0012144 C25,11.6573979 26.3422643,13 27.9987856,13 L36.9999999,12.9999999 Z M36.0833333,11.9999999 L26,1.00000001 L26,10.0012144 C26,11.1052473 26.8946831,12 27.9987856,12 L36.0833333,11.9999999 Z M26.1231766,0 L38,12.2376184 L38,48.9950597 C38,50.6542503 36.657902,52 35.0023401,52 L2.99765987,52 C1.35244012,52 0,50.6561908 0,48.9985181 L0,3.0014819 C0,1.3376562 1.34165061,0 2.99666051,0 L26.1231766,0 Z"></path>
            </g>
            <g id="file-copy-3" transform="translate(50.000000, 0.000000)" sketch:type="MSShapeGroup">
                <path d="M37,13 L37,48.9950597 C37,50.1026634 36.1049181,51 35.0023401,51 L2.99765987,51 C1.90090555,51 1,50.1000904 1,48.9985181 L1,3.0014819 C1,1.89202337 1.89185336,1 2.99666051,1 L25,1.00000001 L25,10.0012144 C25,11.6573979 26.3422643,13 27.9987856,13 L36.9999999,12.9999999 Z M36.0833333,11.9999999 L26,1.00000001 L26,10.0012144 C26,11.1052473 26.8946831,12 27.9987856,12 L36.0833333,11.9999999 Z M26.1231766,0 L38,12.2376184 L38,48.9950597 C38,50.6542503 36.657902,52 35.0023401,52 L2.99765987,52 C1.35244012,52 0,50.6561908 0,48.9985181 L0,3.0014819 C0,1.3376562 1.34165061,0 2.99666051,0 L26.1231766,0 Z" id="file"></path>
            </g>
            <g id="file-copy-4" transform="translate(100.000000, 0.000000)" sketch:type="MSShapeGroup">
                <path d="M37,13 L37,48.9950597 C37,50.1026634 36.1049181,51 35.0023401,51 L2.99765987,51 C1.90090555,51 1,50.1000904 1,48.9985181 L1,3.0014819 C1,1.89202337 1.89185336,1 2.99666051,1 L25,1.00000001 L25,10.0012144 C25,11.6573979 26.3422643,13 27.9987856,13 L36.9999999,12.9999999 Z M36.0833333,11.9999999 L26,1.00000001 L26,10.0012144 C26,11.1052473 26.8946831,12 27.9987856,12 L36.0833333,11.9999999 Z M26.1231766,0 L38,12.2376184 L38,48.9950597 C38,50.6542503 36.657902,52 35.0023401,52 L2.99765987,52 C1.35244012,52 0,50.6561908 0,48.9985181 L0,3.0014819 C0,1.3376562 1.34165061,0 2.99666051,0 L26.1231766,0 Z" id="file"></path>
            </g>
        </g>
    </g>
</svg>