<?xml version="1.0" encoding="UTF-8" standalone="no"?>
<svg width="2048px" height="1028px" viewBox="0 0 2048 1028" version="1.1" xmlns="http://www.w3.org/2000/svg" xmlns:xlink="http://www.w3.org/1999/xlink" xmlns:sketch="http://www.bohemiancoding.com/sketch/ns">
    <!-- Generator: Sketch 3.3.2 (12043) - http://www.bohemiancoding.com/sketch -->
    <title>header</title>
    <desc>Created with Sketch.</desc>
    <defs></defs>
    <g id="" stroke="none" stroke-width="1" fill="none" fill-rule="evenodd" sketch:type="MSPage">
        <g id="header" sketch:type="MSLayerGroup">
            <rect id="bg" fill="#FFFFFF" sketch:type="MSShapeGroup" x="0" y="0" width="2048" height="1028"></rect>
            <path d="M1553.00767,292 L1553.00767,292 C1548.0341,292 1544,296.03242 1544,301.000888 L1544,382.999112 C1544,387.970388 1548.03206,392 1553.00767,392 L1681.99233,392 C1686.9659,392 1691,387.96758 1691,382.999112 L1691,301.000888 C1691,296.029612 1686.96794,292 1681.99233,292 L1553.00767,292 Z M1553.00767,291 L1553.00767,291 L1681.99233,291 C1687.52045,291 1692,295.47755 1692,301.000888 L1692,382.999112 C1692,388.518643 1687.51941,393 1681.99233,393 L1553.00767,393 C1547.47955,393 1543,388.52245 1543,382.999112 L1543,301.000888 C1543,295.481357 1547.48059,291 1553.00767,291 L1553.00767,291 Z" id="Shape" fill="#D8D8D8" sketch:type="MSShapeGroup"></path>
            <path d="M1599.00994,432 L1599.00994,432 L1586.99006,432 C1579.82147,432 1574,437.824231 1574,445.002519 L1574,626.997481 C1574,634.177823 1579.81657,640 1586.99006,640 L1599.00994,640 C1606.17853,640 1612,634.175769 1612,626.997481 L1612,445.002519 C1612,437.822177 1606.18343,432 1599.00994,432 L1599.00994,432 Z M1599.00994,431 C1606.73644,431 1613,437.270617 1613,445.002519 L1613,626.997481 C1613,634.730859 1606.72801,641 1599.00994,641 L1586.99006,641 C1579.26356,641 1573,634.729383 1573,626.997481 L1573,445.002519 C1573,437.269141 1579.27199,431 1586.99006,431 L1599.00994,431 L1599.00994,431 Z" id="Shape" fill="#D8D8D8" sketch:type="MSShapeGroup"></path>
            <path d="M989,298 L989,298 L989,385 L988,384 L1075,384 L1074,385 L1074,298 L1075,299 L988,299 L989,298 Z M988,298 L988,298 L1075,298 L1075,385 L988,385 L988,298 Z" id="Shape" fill="#D8D8D8" sketch:type="MSShapeGroup"></path>
            <path d="M1514,681 L1514,681 L1514,832 L1513,831 L1664,831 L1663,832 L1663,681 L1664,682 L1513,682 L1514,681 Z M1513,681 L1513,681 L1664,681 L1664,832 L1513,832 L1513,681 Z" id="Shape" fill="#D8D8D8" sketch:type="MSShapeGroup"></path>
            <path d="M539,681 L539,681 L539,830 L538,829 L687,829 L686,830 L686,681 L687,682 L538,682 L539,681 Z M538,681 L538,681 L687,681 L687,830 L538,830 L538,681 Z" id="Shape" fill="#D8D8D8" sketch:type="MSShapeGroup"></path>
            <path d="M1180.99049,364 L1180.99049,364 L1365.00951,364 C1367.20576,364 1369,362.204837 1369,359.998997 L1369,322.001003 C1369,319.788198 1367.21452,318 1365.00951,318 L1180.99049,318 C1178.79424,318 1177,319.795163 1177,322.001003 L1177,359.998997 C1177,362.211802 1178.78548,364 1180.99049,364 L1180.99049,364 Z M1180.99049,365 C1178.23432,365 1176,362.76521 1176,359.998997 L1176,322.001003 C1176,319.239025 1178.2458,317 1180.99049,317 L1365.00951,317 C1367.76568,317 1370,319.23479 1370,322.001003 L1370,359.998997 C1370,362.760975 1367.7542,365 1365.00951,365 L1180.99049,365 L1180.99049,365 Z" id="Shape" fill="#D8D8D8" sketch:type="MSShapeGroup"></path>
            <path d="M795,867 L795,867 L794,866 L1036,866 L1035,867 L1035,799 L1036,800 L794,800 L795,799 L795,867 Z M794,867 L794,799 L1036,799 L1036,867 L794,867 L794,867 Z" id="Shape" fill="#D8D8D8" sketch:type="MSShapeGroup"></path>
            <path d="M666.004902,317 L666.004902,317 C661.031278,317 657,321.028807 657,325.999201 L657,380.000799 C657,384.968238 661.036034,389 666.004902,389 L839.995098,389 C844.968722,389 849,384.971193 849,380.000799 L849,325.999201 C849,321.031762 844.963966,317 839.995098,317 L666.004902,317 Z M666.004902,316 L666.004902,316 L839.995098,316 C845.513566,316 850,320.476795 850,325.999201 L850,380.000799 C850,385.523831 845.520653,390 839.995098,390 L666.004902,390 C660.486434,390 656,385.523205 656,380.000799 L656,325.999201 C656,320.476169 660.479347,316 666.004902,316 L666.004902,316 Z" id="Shape" fill="#D8D8D8" sketch:type="MSShapeGroup"></path>
            <path d="M1088,215 L1088,215 C1098.49498,215 1107,206.494342 1107,196.00017 L1107,133.99983 C1107,123.511817 1098.49052,115 1088,115 C1077.50502,115 1069,123.505658 1069,133.99983 L1069,196.00017 C1069,206.488183 1077.50948,215 1088,215 L1088,215 Z M1088,216 C1076.95431,216 1068,207.037577 1068,196.00017 L1068,133.99983 C1068,122.954229 1076.95188,114 1088,114 C1099.04569,114 1108,122.962423 1108,133.99983 L1108,196.00017 C1108,207.045771 1099.04812,216 1088,216 L1088,216 Z" id="Shape" fill="#D8D8D8" sketch:type="MSShapeGroup"></path>
            <path d="M771,656.5 C799.442666,656.5 822.5,633.442666 822.5,605 C822.5,576.557334 799.442666,553.5 771,553.5 C742.557334,553.5 719.5,576.557334 719.5,605 C719.5,633.442666 742.557334,656.5 771,656.5 L771,656.5 Z M771,655.5 C743.109619,655.5 720.5,632.890381 720.5,605 C720.5,577.109619 743.109619,554.5 771,554.5 C798.890381,554.5 821.5,577.109619 821.5,605 C821.5,632.890381 798.890381,655.5 771,655.5 L771,655.5 Z" id="Shape" fill="#D8D8D8" sketch:type="MSShapeGroup"></path>
            <path d="M1525.5,451.5 C1532.6797,451.5 1538.5,445.679702 1538.5,438.5 C1538.5,431.320298 1532.6797,425.5 1525.5,425.5 C1518.3203,425.5 1512.5,431.320298 1512.5,438.5 C1512.5,445.679702 1518.3203,451.5 1525.5,451.5 L1525.5,451.5 Z M1525.5,450.5 C1518.87258,450.5 1513.5,445.127417 1513.5,438.5 C1513.5,431.872583 1518.87258,426.5 1525.5,426.5 C1532.12742,426.5 1537.5,431.872583 1537.5,438.5 C1537.5,445.127417 1532.12742,450.5 1525.5,450.5 L1525.5,450.5 Z" id="Shape" fill="#D8D8D8" sketch:type="MSShapeGroup"></path>
            <path d="M1406,204.5 C1417.87412,204.5 1427.5,194.874123 1427.5,183 C1427.5,171.125877 1417.87412,161.5 1406,161.5 C1394.12588,161.5 1384.5,171.125877 1384.5,183 C1384.5,194.874123 1394.12588,204.5 1406,204.5 L1406,204.5 Z M1406,203.5 C1394.67816,203.5 1385.5,194.321838 1385.5,183 C1385.5,171.678162 1394.67816,162.5 1406,162.5 C1417.32184,162.5 1426.5,171.678162 1426.5,183 C1426.5,194.321838 1417.32184,203.5 1406,203.5 L1406,203.5 Z" id="Shape" fill="#D8D8D8" sketch:type="MSShapeGroup"></path>
            <path d="M430.5,624.5 C502.297021,624.5 560.5,566.297021 560.5,494.5 C560.5,422.702979 502.297021,364.5 430.5,364.5 C358.702979,364.5 300.5,422.702979 300.5,494.5 C300.5,566.297021 358.702979,624.5 430.5,624.5 L430.5,624.5 Z M430.5,623.5 C359.255264,623.5 301.5,565.744736 301.5,494.5 C301.5,423.255264 359.255264,365.5 430.5,365.5 C501.744736,365.5 559.5,423.255264 559.5,494.5 C559.5,565.744736 501.744736,623.5 430.5,623.5 L430.5,623.5 Z" id="Shape" fill="#D8D8D8" sketch:type="MSShapeGroup"></path>
            <path d="M1273,681.5 C1287.08326,681.5 1298.5,670.083262 1298.5,656 C1298.5,641.916738 1287.08326,630.5 1273,630.5 C1258.91674,630.5 1247.5,641.916738 1247.5,656 C1247.5,670.083262 1258.91674,681.5 1273,681.5 L1273,681.5 Z M1273,680.5 C1259.46902,680.5 1248.5,669.530977 1248.5,656 C1248.5,642.469023 1259.46902,631.5 1273,631.5 C1286.53098,631.5 1297.5,642.469023 1297.5,656 C1297.5,669.530977 1286.53098,680.5 1273,680.5 L1273,680.5 Z" id="Shape" fill="#D8D8D8" sketch:type="MSShapeGroup"></path>
            <path d="M1361.99595,426 L1361.99595,426 C1358.68397,426 1356,428.685674 1356,432.001682 L1356,623.998318 C1356,627.308945 1358.69188,630 1361.99595,630 L1454.00405,630 C1457.31603,630 1460,627.314326 1460,623.998318 L1460,432.001682 C1460,428.691055 1457.30812,426 1454.00405,426 L1361.99595,426 Z M1361.99595,425 L1361.99595,425 L1454.00405,425 C1457.85639,425 1461,428.13476 1461,432.001682 L1461,623.998318 C1461,627.867116 1457.86781,631 1454.00405,631 L1361.99595,631 C1358.14361,631 1355,627.86524 1355,623.998318 L1355,432.001682 C1355,428.132884 1358.13219,425 1361.99595,425 L1361.99595,425 Z" id="Shape" fill="#D8D8D8" sketch:type="MSShapeGroup"></path>
            <path d="M735.999262,157.500163 L735.999262,157.500163 C723.849346,157.500163 714,167.34786 714,179.495617 L714,241.004547 C714,253.155033 723.844271,263 735.999262,263 L908.653319,263 C920.803235,263 930.652581,253.152303 930.652581,241.004547 L930.652581,179.495617 C930.652581,167.34513 920.808309,157.500163 908.653319,157.500163 L735.999262,157.500163 Z M735.999262,156.500163 L735.999262,156.500163 L908.653319,156.500163 C921.363327,156.500163 931.652581,166.795578 931.652581,179.495617 L931.652581,241.004547 C931.652581,253.704647 921.355461,264 908.653319,264 L735.999262,264 C723.289254,264 713,253.704585 713,241.004547 L713,179.495617 C713,166.795517 723.29712,156.500163 735.999262,156.500163 L735.999262,156.500163 Z" id="Shape" fill="#D8D8D8" sketch:type="MSShapeGroup"></path>
            <path d="M975.490819,690 L975.490819,690 C967.487225,690 961,696.490525 961,704.5 C961,712.505919 967.492142,719 975.490819,719 L1160.50918,719 C1168.51278,719 1175,712.509475 1175,704.5 C1175,696.494081 1168.50786,690 1160.50918,690 L975.490819,690 Z M975.490819,689 L975.490819,689 L1160.50918,689 C1169.05793,689 1176,695.939586 1176,704.5 C1176,713.062296 1169.06452,720 1160.50918,720 L975.490819,720 C966.942067,720 960,713.060414 960,704.5 C960,695.937704 966.935476,689 975.490819,689 L975.490819,689 Z" id="Shape" fill="#D8D8D8" sketch:type="MSShapeGroup"></path>
            <path d="M425.007149,217 L425.007149,217 C412.299559,217 402,227.295628 402,240 C402,252.704939 412.296059,263 425.007149,263 L570.992851,263 C583.700441,263 594,252.704372 594,240 C594,227.295061 583.703941,217 570.992851,217 L425.007149,217 Z M425.007149,216 L425.007149,216 L570.992851,216 C584.258615,216 595,226.745166 595,240 C595,253.257748 584.251633,264 570.992851,264 L425.007149,264 C411.741385,264 401,253.254834 401,240 C401,226.742252 411.748367,216 425.007149,216 L425.007149,216 Z" id="Shape" fill="#D8D8D8" sketch:type="MSShapeGroup"></path>
        </g>
    </g>
</svg>