<?xml version="1.0" encoding="UTF-8" standalone="no"?>
<svg width="152px" height="50px" viewBox="0 0 152 50" version="1.1" xmlns="http://www.w3.org/2000/svg" xmlns:xlink="http://www.w3.org/1999/xlink" xmlns:sketch="http://www.bohemiancoding.com/sketch/ns">
    <!-- Generator: Sketch 3.3.2 (12043) - http://www.bohemiancoding.com/sketch -->
    <title>keyboard-shortcut</title>
    <desc>Created with Sketch.</desc>
    <defs></defs>
    <g id="" stroke="none" stroke-width="1" fill="none" fill-rule="evenodd" sketch:type="MSPage">
        <g id="keyboard-shortcut" sketch:type="MSLayerGroup" fill="#45ACF8">
            <path d="M6.99580644,1 L6.99580644,1 C3.68158702,1 1,3.68283706 1,7.00493297 L1,42.995067 C1,46.3115654 3.68509483,49 6.99580644,49 L62.0041936,49 C65.318413,49 68,46.3171629 68,42.995067 L68,7.00493297 C68,3.68843456 65.3149052,1 62.0041936,1 L6.99580644,1 Z M6.99580644,0 L6.99580644,0 L62.0041936,0 C65.8672561,0 69,3.13621532 69,7.00493297 L69,42.995067 C69,46.8722761 65.8678708,50 62.0041936,50 L6.99580644,50 C3.13274393,50 0,46.8637847 0,42.995067 L0,7.00493297 C0,3.12772393 3.13212923,0 6.99580644,0 L6.99580644,0 Z" id="Shape" sketch:type="MSShapeGroup"></path>
            <path d="M109.004933,1 L109.004933,1 C105.685377,1 103,3.68312897 103,7.00493297 L103,42.995067 C103,46.3146225 105.683129,49 109.004933,49 L144.995067,49 C148.314623,49 151,46.316871 151,42.995067 L151,7.00493297 C151,3.68537749 148.316871,1 144.995067,1 L109.004933,1 Z M109.004933,0 L109.004933,0 L144.995067,0 C148.872276,0 152,3.13621532 152,7.00493297 L152,42.995067 C152,46.8722761 148.863785,50 144.995067,50 L109.004933,50 C105.127724,50 102,46.8637847 102,42.995067 L102,7.00493297 C102,3.12772393 105.136215,0 109.004933,0 L109.004933,0 Z" id="Shape" sketch:type="MSShapeGroup"></path>
            <path d="M85,26 L81,26 L81,25 L85,25 L85,21 L86,21 L86,25 L90,25 L90,26 L86,26 L86,30 L85,30 L85,26 Z" id="plus" sketch:type="MSShapeGroup"></path>
            <path d="M31.2,28.5119818 L32.64,32.9999818 L34.152,32.9999818 L28.68,16.5599818 L26.88,16.5599818 L21.384,32.9999818 L22.848,32.9999818 L24.288,28.5119818 L31.2,28.5119818 Z M30.816,27.2879818 L24.696,27.2879818 L27.768,17.7359818 L30.816,27.2879818 Z M38.376,15.1679818 L36.984,15.3359818 L36.984,30.8399818 C36.984,32.4959818 37.8,33.2639818 39.144,33.2639818 C39.672,33.2639818 40.2,33.1199818 40.632,32.9279818 L40.248,31.8959818 C39.984,32.0159818 39.696,32.0639818 39.408,32.0639818 C38.664,32.0639818 38.376,31.6559818 38.376,30.8399818 L38.376,15.1679818 Z M49.08,31.4879818 C48.456,31.8719818 47.856,32.0639818 47.16,32.0639818 C45.888,32.0639818 45.312,31.3439818 45.312,29.8799818 L45.312,21.5759818 L48.384,21.5759818 L48.552,20.4479818 L45.312,20.4479818 L45.312,17.2799818 L43.92,17.4479818 L43.92,20.4479818 L41.808,20.4479818 L41.808,21.5759818 L43.92,21.5759818 L43.92,29.9519818 C43.92,32.1359818 45.096,33.2639818 46.992,33.2639818 C48,33.2639818 48.864,32.9759818 49.632,32.4719818 L49.08,31.4879818 Z" id="Alt-copy" sketch:type="MSShapeGroup"></path>
            <path d="M121.664,17.5599757 L121.664,33.9999757 L125.192,33.9999757 C128.576,33.9999757 132.584,32.4639757 132.584,25.6479757 C132.584,18.8799757 128.744,17.5599757 124.928,17.5599757 L121.664,17.5599757 Z M123.104,18.7599757 L125.12,18.7599757 C128,18.7599757 131.072,19.6239757 131.072,25.6479757 C131.072,31.5519757 128.12,32.7999757 125.288,32.7999757 L123.104,32.7999757 L123.104,18.7599757 Z" id="D-copy" sketch:type="MSShapeGroup"></path>
        </g>
    </g>
</svg>