<?xml version="1.0" encoding="UTF-8" standalone="no"?>
<svg width="52px" height="51px" viewBox="0 0 52 51" version="1.1" xmlns="http://www.w3.org/2000/svg" xmlns:xlink="http://www.w3.org/1999/xlink" xmlns:sketch="http://www.bohemiancoding.com/sketch/ns">
    <!-- Generator: Sketch 3.3.2 (12043) - http://www.bohemiancoding.com/sketch -->
    <title>open-source</title>
    <desc>Created with Sketch.</desc>
    <defs></defs>
    <g id="" stroke="none" stroke-width="1" fill="none" fill-rule="evenodd" sketch:type="MSPage">
        <g id="open-source" sketch:type="MSLayerGroup" fill="#45ACF8">
            <path d="M16.9024043,50.2974018 L16.8807086,50.3558026 L16.8807086,50.3558026 C7.01950717,46.6619051 0,37.1506999 0,26 C0,11.6405958 11.6405958,0 26,0 C40.3594042,0 52,11.6405958 52,26 C52,37.1815697 44.9415731,46.7145546 35.0373262,50.3863476 L35.0150399,50.3235464 L35.0150399,50.3235464 L34.6896966,50.4353832 L28.7646168,33.5896966 L29.0427508,33.494088 L29.0139163,33.4128346 C31.9383728,32.2226073 34,29.3520632 34,26 C34,21.5817218 30.4182782,18 26,18 C21.5817218,18 18,21.5817218 18,26 C18,29.4146706 20.1393574,32.3296671 23.1508413,33.4777588 L23.1362312,33.5170865 L23.6437263,33.7073971 L17.2926029,50.4437263 L16.9024043,50.2974018 Z M16.6913868,49.2095208 C7.49426576,45.5174388 1,36.5171284 1,26 C1,12.1928805 12.1928805,1 26,1 C39.8071195,1 51,12.1928805 51,26 C51,36.513808 44.5098342,45.5117557 35.3173233,49.2060224 L29.99288,34.0680148 C32.9601745,32.5966746 35,29.5365508 35,26 C35,21.029437 30.970563,17 26,17 C21.029437,17 17,21.029437 17,26 C17,29.6798888 19.2085265,32.8439484 22.372414,34.2390133 L16.6913868,49.2095208 Z" id="Shape" sketch:type="MSShapeGroup"></path>
        </g>
    </g>
</svg>