<?xml version="1.0" encoding="UTF-8" standalone="no"?>
<svg width="142px" height="52px" viewBox="0 0 142 52" version="1.1" xmlns="http://www.w3.org/2000/svg" xmlns:xlink="http://www.w3.org/1999/xlink" xmlns:sketch="http://www.bohemiancoding.com/sketch/ns">
    <!-- Generator: Sketch 3.3.2 (12043) - http://www.bohemiancoding.com/sketch -->
    <title>search</title>
    <desc>Created with Sketch.</desc>
    <defs></defs>
    <g id="" stroke="none" stroke-width="1" fill="none" fill-rule="evenodd" sketch:type="MSPage">
        <g id="search" sketch:type="MSLayerGroup">
            <path d="M4.99134976,1 L4.99134976,1 C2.78461775,1 1,2.78903891 1,5.00957977 L1,46.9904202 C1,49.2072592 2.78517316,51 4.99134976,51 L137.00865,51 C139.215382,51 141,49.2109611 141,46.9904202 L141,5.00957977 C141,2.79274076 139.214827,1 137.00865,1 L4.99134976,1 Z M4.99134976,0 L4.99134976,0 L137.00865,0 C139.769519,0 142,2.24286526 142,5.00957977 L142,46.9904202 C142,49.765625 139.765297,52 137.00865,52 L4.99134976,52 C2.23048091,52 0,49.7571347 0,46.9904202 L0,5.00957977 C0,2.234375 2.2347034,0 4.99134976,0 L4.99134976,0 Z" id="Shape" fill="#45ACF8" sketch:type="MSShapeGroup"></path>
            <path d="M25.9978763,10 L25.9978763,10 C17.1617894,10 10,17.1620834 10,26 C10,34.8343279 17.1666304,42 25.9978763,42 L116.002124,42 C124.838211,42 132,34.8379166 132,26 C132,17.1656721 124.83337,10 116.002124,10 L25.9978763,10 Z M25.9978763,9 L25.9978763,9 L116.002124,9 C125.383426,9 133,16.6111593 133,26 C133,35.3909051 125.389792,43 116.002124,43 L25.9978763,43 C16.616574,43 9,35.3888407 9,26 C9,16.6090949 16.6102084,9 25.9978763,9 L25.9978763,9 Z" id="Shape" fill="#45ACF8" sketch:type="MSShapeGroup"></path>
            <path d="M26,31 L26,31 C29.8659935,31 33,27.8659935 33,24 C33,20.1340065 29.8659935,17 26,17 C22.1340065,17 19,20.1340065 19,24 C19,27.8659935 22.1340065,31 26,31 L26,31 Z M26,32 L26,32 C21.5817218,32 18,28.4182782 18,24 C18,19.5817218 21.5817218,16 26,16 C30.4182782,16 34,19.5817218 34,24 C34,28.4182782 30.4182782,32 26,32 L26,32 Z" id="Shape" fill="#45ACF8" sketch:type="MSShapeGroup"></path>
            <path d="M31,29 L38,36" id="Path-11" stroke="#45ACF8" stroke-width="2" sketch:type="MSShapeGroup"></path>
        </g>
    </g>
</svg>